<svg xmlns="http://www.w3.org/2000/svg" width="1200" height="630" viewBox="0 0 1200 630">
  <defs>
    <linearGradient id="bg" x1="0" y1="0" x2="1" y2="1">
      <stop offset="0%" stop-color="#1B1A23"/>
      <stop offset="100%" stop-color="#252B37"/>
    </linearGradient>
  </defs>

  <!-- Background -->
  <rect width="1200" height="630" fill="url(#bg)"/>

  <!-- Accent line top -->
  <rect x="0" y="0" width="1200" height="5" fill="#FF5A00"/>

  <!-- LAFA Logo scaled 7x: 124x21 → 868x147, centered -->
  <g transform="translate(166, 165) scale(7)">
    <g clip-path="url(#logoClip)">
      <path d="M122.258 18.187C121.802 18.187 121.346 18.1759 120.89 18.187C120.669 18.2093 120.46 18.0923 120.376 17.8947C120.155 17.4632 119.92 17.0372 119.725 16.5973C119.659 16.3969 119.45 16.2716 119.232 16.2994H114.963C113.674 16.2994 112.387 16.3161 111.098 16.3106C110.863 16.2827 110.636 16.4136 110.558 16.6279C110.372 17.0205 110.157 17.3936 109.968 17.7833C109.881 18.006 109.658 18.1508 109.408 18.1397C108.432 18.1397 107.456 18.1703 106.484 18.1786C106.24 18.1786 106.205 18.1174 106.306 17.9225C106.995 16.6112 107.68 15.3027 108.371 13.9915C109.164 12.502 109.968 11.0181 110.761 9.52307C111.722 7.7218 112.681 5.91774 113.63 4.11369C113.706 3.91881 113.912 3.79631 114.127 3.8158C114.914 3.82415 115.701 3.82415 116.488 3.8158C116.688 3.79909 116.88 3.91045 116.952 4.09142C117.608 5.37764 118.276 6.6583 118.93 7.94731C119.818 9.70682 120.692 11.4719 121.584 13.2314C122.351 14.7515 123.138 16.2688 123.91 17.7805C124.078 18.1063 124.032 18.1703 123.657 18.1731C123.19 18.1954 122.722 18.1926 122.258 18.1926V18.187ZM115.282 7.61322C115.195 7.74407 115.143 7.81089 115.108 7.88606C114.185 9.67341 113.261 11.4608 112.341 13.2481C112.207 13.5042 112.236 13.5488 112.527 13.5488H117.835C118.122 13.5488 118.154 13.4903 118.035 13.2453C117.179 11.4747 116.319 9.70404 115.46 7.93339C115.416 7.85544 115.364 7.76635 115.28 7.61601L115.282 7.61322Z" fill="white"/>
      <path d="M89.2924 18.187H87.8956C87.6924 18.2037 87.5036 18.0923 87.4281 17.9114C87.2103 17.4799 86.9664 17.0595 86.7718 16.6168C86.705 16.3969 86.4785 16.2604 86.2433 16.2938C85.7003 16.3078 85.1514 16.2938 84.6055 16.2938C82.4479 16.2938 80.2932 16.3133 78.1356 16.3106C77.883 16.2799 77.6448 16.4247 77.5635 16.6586C77.3777 17.0817 77.1221 17.4798 76.8985 17.8891C76.8172 18.0673 76.6285 18.1786 76.4281 18.1675H73.5561C73.2803 18.1675 73.2425 18.0979 73.3703 17.8473C74.0266 16.5806 74.6828 15.3139 75.3391 14.0443C76.007 12.7553 76.6749 11.4691 77.3457 10.1801C77.6623 9.57318 77.9991 8.98018 78.3156 8.37326C78.9284 7.20118 79.5324 6.02353 80.1422 4.85145C80.2787 4.58975 80.4326 4.33641 80.5604 4.07471C80.6417 3.9021 80.8275 3.7963 81.025 3.81857H83.3075C83.4904 3.80465 83.6617 3.90766 83.7285 4.07192C84.1583 4.87373 84.5997 5.66718 85.0237 6.46898C85.9268 8.18395 86.8212 9.9017 87.7185 11.6194C88.6013 13.2954 89.4783 14.9714 90.3465 16.6502C90.5556 17.0483 90.7763 17.4409 90.9767 17.8418C91.119 18.123 91.0696 18.187 90.7357 18.1898H89.2866H89.2953L89.2924 18.187ZM79.1752 13.5098C79.2594 13.5293 79.3465 13.5432 79.4336 13.5516H84.8233C85.0934 13.5516 85.1195 13.5042 85.0092 13.2815C84.1118 11.4942 83.2145 9.71238 82.3143 7.93617C82.2766 7.86378 82.233 7.79696 82.1865 7.73015L82.0965 7.71901L79.1752 13.507V13.5098Z" fill="white"/>
      <path d="M95.019 10.9875V4.24454C95.019 3.84364 95.0364 3.82693 95.4604 3.82693H105.313C105.668 3.82693 105.711 3.88262 105.624 4.20278C105.447 4.84032 105.273 5.47787 105.093 6.11541C104.947 6.63325 104.936 6.6416 104.381 6.6416H98.7447C98.0797 6.6416 98.0739 6.6416 98.071 7.27914C98.071 8.17282 98.071 9.08042 98.0826 9.98244C98.0826 10.3082 98.1116 10.3304 98.4543 10.3304H103.153C103.615 10.3304 103.632 10.3472 103.525 10.7815C103.362 11.4329 103.185 12.0788 103.031 12.7303C103.005 12.953 102.796 13.1145 102.56 13.0894C102.555 13.0894 102.546 13.0894 102.54 13.0894C101.198 13.0811 99.8569 13.0894 98.5124 13.0894C98.0855 13.0894 98.0797 13.0894 98.0797 13.5098V17.6775C98.0797 18.1536 98.0681 18.1647 97.5657 18.1647H95.5271C95.0393 18.1647 95.0277 18.1508 95.0277 17.6914V10.9736L95.0161 10.9819L95.019 10.9875Z" fill="white"/>
      <path d="M59.9745 10.9791V4.34198C59.9745 4.00604 60.1459 3.83714 60.4885 3.83528H62.5822C62.9859 3.83528 63.012 3.85755 63.012 4.24454V15.0494C63.012 15.4948 63.012 15.5004 63.4679 15.5004H68.8344C69.2728 15.5004 69.2932 15.5199 69.2961 15.9319V17.8362C69.2961 18.0923 69.1886 18.1842 68.9244 18.1842H60.3607C60.021 18.1842 59.9716 18.1285 59.9716 17.7777V10.9819L59.9745 10.9791Z" fill="white"/>
      <path d="M30.459 2.51286C29.4949 2.57967 28.3159 2.59916 27.1631 2.75785C26.0015 2.92768 24.8545 3.16154 23.7219 3.45943C21.6311 3.99396 19.6739 4.84866 17.7834 5.8537C16.468 6.55528 15.1786 7.30697 13.776 7.84707C12.3415 8.39831 10.8779 8.82149 9.32143 8.8883C8.49381 8.92171 7.6662 8.9245 6.83858 8.96904C5.7409 9.02751 4.67516 9.25858 3.71978 9.81539C2.474 10.5392 1.85256 11.8143 2.29396 13.3706C2.40721 13.7632 2.45948 14.1668 2.45077 14.5733C2.43625 15.3027 2.45077 16.0321 2.43625 16.7616C2.42463 16.8507 2.3985 16.937 2.36365 17.0205C2.27072 16.9899 2.1807 16.9481 2.09939 16.8952C1.34147 16.2215 0.844903 15.3779 0.452874 14.487C-0.0378871 13.4179 -0.130812 12.218 0.191522 11.0905C0.635821 9.54812 1.68413 8.4874 3.17384 7.80253C4.36154 7.25964 5.6654 6.98959 6.98087 7.01465C8.29344 7.05362 9.60311 6.92556 10.8808 6.63602C12.3183 6.27688 13.6947 5.7312 14.9753 5.01014C16.9529 3.91323 18.974 2.90262 21.1171 2.13144C22.8217 1.50782 24.5931 1.06794 26.3964 0.820161C27.4041 0.683743 28.4176 0.614142 29.4281 0.536189C30.8481 0.449883 32.2769 0.505564 33.6853 0.700447C34.6029 0.814592 35.5234 0.912034 36.4382 1.04288C38.0702 1.27674 39.6702 1.68878 41.2064 2.26508C42.4289 2.6966 43.6137 3.22279 44.7492 3.83806C45.2951 4.13873 45.8265 4.47282 46.3579 4.80134C46.4509 4.8598 46.5118 4.95167 46.5264 5.05747C46.5148 5.7841 46.5815 6.53301 46.4363 7.23737C45.9833 9.40892 44.7027 10.9485 42.4464 11.6306C42.1211 11.7225 41.7843 11.7726 41.4474 11.7809C40.8608 11.806 40.2742 11.7948 39.6847 11.7948C39.4118 11.7948 39.3711 11.7531 39.3711 11.4942C39.3711 11.0237 39.3798 10.5559 39.3711 10.0854C39.3711 9.90169 39.4466 9.82374 39.6383 9.82652C40.0594 9.82652 40.4833 9.81817 40.9044 9.82652C42.246 9.8655 43.6515 9.03864 44.0697 7.65776C44.1887 7.19004 44.2816 6.71675 44.3455 6.2379C44.3775 6.07643 44.2904 5.91773 44.1335 5.85092C43.0242 5.19388 41.854 4.63986 40.6372 4.19441C39.316 3.70721 37.9511 3.34528 36.5572 3.10864C35.3666 2.91376 34.1615 2.77734 32.9564 2.65763C32.1956 2.56575 31.4347 2.5574 30.4648 2.50729L30.459 2.51286Z" fill="#FF6200"/>
      <path d="M25.296 19.0723C23.1936 19.0723 21.0911 19.0612 18.9858 19.0723C16.8427 19.0862 15.0742 18.3206 13.6571 16.7922C12.9602 16.0433 12.2661 15.2916 11.575 14.5343C11.5256 14.4675 11.4821 14.3951 11.4472 14.3172C11.5314 14.2782 11.6186 14.2531 11.7115 14.242H13.9475C14.1334 14.2364 14.3076 14.3172 14.4179 14.4592C14.8042 14.9018 15.1817 15.3528 15.5998 15.7677C16.3636 16.5583 17.4409 17.0038 18.5647 16.9898H29.3266C30.3662 16.9898 31.4058 16.9899 32.4454 16.9676C33.2934 16.9592 34.1036 16.6279 34.6989 16.0461C35.178 15.5672 35.6281 15.0661 36.0492 14.5399C36.1857 14.3339 36.4296 14.2142 36.6851 14.2281C37.4315 14.2476 38.1778 14.2281 38.9241 14.2392C39.0228 14.2504 39.1215 14.2726 39.2174 14.306C39.1796 14.3896 39.1331 14.4675 39.078 14.5399C38.2416 15.4224 37.4198 16.3161 36.5574 17.1764C35.7675 17.9921 34.7453 18.5712 33.6186 18.8412C33.0117 18.9777 32.3874 19.0528 31.763 19.0584C29.6083 19.0834 27.4536 19.0667 25.296 19.0667L25.2902 19.0723H25.296Z" fill="#FF6200"/>
      <path d="M43.8549 14.2949C43.9594 14.2726 44.064 14.2587 44.1685 14.2476C44.6651 14.2476 45.1616 14.2364 45.6611 14.2476C46.6514 14.2699 47.4354 13.8829 48.0743 13.1785C48.3879 12.8305 48.3966 12.8361 48.7915 13.0839C49.2126 13.3511 49.7411 13.4152 50.2203 13.2565C50.2842 13.2481 50.348 13.2481 50.4119 13.2565C50.4032 13.3233 50.4119 13.4068 50.38 13.4541C49.8747 14.1334 49.3549 14.81 48.5679 15.2081C48.112 15.4308 47.6387 15.6229 47.1537 15.7872C46.9621 15.8568 46.875 15.9375 46.8866 16.1379C46.9621 16.9481 46.8169 17.7638 46.4684 18.5044C45.362 20.8207 42.6498 22.0067 40.1001 21.2912C38.8689 20.946 37.9019 20.2054 37.1498 19.2115C36.9203 18.9108 36.932 18.8691 37.1991 18.6102C37.6202 18.2065 38.0383 17.8028 38.4536 17.4075C38.6104 17.2571 38.6627 17.2655 38.7382 17.4743C39.1767 18.638 40.042 19.3257 41.3082 19.5178C41.9209 19.6124 42.5046 19.437 43.0534 19.1725C44.729 18.3596 45.2255 16.1101 44.0175 14.5677C43.9681 14.4926 43.9188 14.4091 43.8491 14.2949H43.8549Z" fill="#FF6200"/>
      <path d="M28.2928 13.8021H29.1727C29.9393 13.8188 29.8 13.855 29.8145 13.2008C29.8145 12.8027 29.829 12.7887 30.2501 12.7887H30.4069C31.2722 12.7887 32.1347 12.7887 33.0059 12.7971C33.2063 12.8054 33.395 12.6969 33.4763 12.5215C33.5634 12.3544 33.5286 12.1512 33.3921 12.0176C33.2701 11.8756 33.0843 11.7976 32.8926 11.8171H30.1571C29.8435 11.8171 29.8116 11.7893 29.8116 11.4802V10.0493C29.8116 9.68733 29.8348 9.66505 30.2065 9.66505H32.6022C32.759 9.66784 32.9159 9.66505 33.0727 9.64557C33.305 9.60102 33.4821 9.42006 33.5083 9.19455C33.5402 9.01637 33.4357 8.8382 33.2614 8.77416C33.122 8.70735 32.971 8.66837 32.8142 8.6628C31.9111 8.65166 31.0051 8.65166 30.102 8.6628C29.8871 8.6628 29.8 8.58485 29.8116 8.38161C29.8203 8.23128 29.8116 8.09207 29.8116 7.9473C29.8116 7.80253 29.7477 7.7385 29.6083 7.7385C29.013 7.7385 28.4177 7.72736 27.8224 7.7385C27.7527 7.74407 27.6888 7.78305 27.654 7.84151C27.6453 7.89997 27.6075 7.9473 27.5552 7.97514V13.7103C27.7817 13.8745 28.0402 13.7994 28.2928 13.8049V13.8021Z" fill="#FF6200"/>
      <path d="M50.1622 9.89335V9.22796C50.1448 8.86325 49.8195 8.57928 49.4391 8.59877C49.0848 8.61547 48.8002 8.88831 48.7828 9.22796V9.89056H48.2514V10.4335H50.6907V9.89892H50.1622V9.89335Z" fill="#FF6200"/>
      <path d="M48.7741 11.6612V12.321C48.7567 12.6857 49.05 12.9975 49.4304 13.0142C49.8108 13.031 50.136 12.7498 50.1535 12.3851C50.1535 12.3628 50.1535 12.3433 50.1535 12.321V11.6612H50.6878V11.1239H48.2514V11.6612H48.777H48.7741Z" fill="#FF6200"/>
      <path d="M27.3781 8.00019H25.7287C25.296 7.99741 24.872 8.10599 24.4974 8.31757C23.9747 8.60711 23.5711 9.05534 23.3475 9.59266C23.3329 9.64834 22.7812 11.7308 23.7192 12.8583C24.2273 13.4179 24.9737 13.727 25.7461 13.7019C26.2804 13.688 26.8176 13.7019 27.352 13.7019C27.4187 13.7019 27.5088 13.6824 27.5523 13.7158V7.97792C27.4972 7.99741 27.4391 8.00576 27.381 8.00298L27.3781 8.00019Z" fill="#FF6200"/>
      <path d="M12.3591 17.5773C12.2545 17.4771 12.1471 17.3824 12.0164 17.2599C11.9641 17.3406 11.9177 17.4242 11.877 17.5105C11.5169 18.5044 10.788 19.1196 9.75134 19.4064C8.61881 19.7154 7.61406 19.437 6.81548 18.6436C5.89494 17.7304 5.69747 16.614 6.0866 15.4085C6.76611 13.2425 8.84532 11.7614 11.2033 11.7586C16.6743 11.7252 18.132 11.7419 23.6001 11.7336V9.73186H12.3765C11.4037 9.71237 10.4338 9.7959 9.48127 9.97964C8.11934 10.2636 6.86485 10.9012 5.85428 11.8227C4.72176 12.8583 4.06257 14.1446 3.76927 15.609C3.57471 16.4999 3.66183 17.4242 4.01611 18.2677C4.93955 20.4894 7.34109 21.8007 9.80651 21.4276C11.392 21.216 12.5768 20.3585 13.5032 19.1475C13.66 18.9331 13.6455 18.8245 13.4509 18.638C13.085 18.2872 12.7249 17.9309 12.3591 17.5773Z" fill="#FF6200"/>
    </g>
    <defs>
      <clipPath id="logoClip">
        <rect width="124" height="22" fill="white" transform="translate(0 0)"/>
      </clipPath>
    </defs>
  </g>

  <!-- Subtitle -->
  <text x="600" y="430" text-anchor="middle" font-family="system-ui, -apple-system, sans-serif" font-size="42" font-weight="600" fill="#FF5A00">De Spreadsheets a Plataforma</text>

  <!-- Author line -->
  <text x="600" y="490" text-anchor="middle" font-family="system-ui, -apple-system, sans-serif" font-size="28" fill="rgba(255,255,255,0.6)">Portfolio de Producto | Jose Diaz</text>

  <!-- Accent line bottom -->
  <rect x="0" y="625" width="1200" height="5" fill="#FF5A00"/>
</svg>
